<svg width="68" height="68" viewBox="0 0 68 68" fill="none" xmlns="http://www.w3.org/2000/svg">
<path d="M39.7459 20.4855C39.7657 20.5819 39.7406 20.6817 39.678 20.7576L37.5872 22.7805C36.7228 23.6232 36.3285 24.8376 36.533 26.0275L37.043 28.8667V28.8664C37.059 28.9677 37.0119 29.0686 36.9242 29.1214C36.8411 29.1995 36.7163 29.2136 36.618 29.1555L34.0338 27.8297H34.0342C32.9641 27.2685 31.6868 27.2685 30.6171 27.8297L28.0329 29.1897C27.9346 29.2466 27.8105 29.233 27.7271 29.1556C27.639 29.1028 27.592 29.0019 27.6079 28.9006L28.1008 26.0614C28.3038 24.8653 27.8955 23.6469 27.0129 22.8147L24.9387 20.8089L24.9391 20.8085C24.8571 20.7428 24.8256 20.6328 24.8598 20.5337C24.8943 20.4347 24.9869 20.3679 25.092 20.3664L27.9649 19.9414C29.1603 19.7642 30.1943 19.0159 30.7357 17.9356V17.9185L32.0278 15.3343V15.3347C32.0734 15.236 32.1747 15.175 32.2828 15.1814C32.3921 15.1719 32.495 15.2338 32.5378 15.3347L32.6737 15.6068L33.5408 17.3068L33.8466 17.9189L33.847 17.9185C34.3885 18.9958 35.424 19.7391 36.6178 19.9077L39.5078 20.3156C39.6148 20.3167 39.71 20.3847 39.7457 20.4856L39.7459 20.4855Z" fill="#F55656"/>
<path d="M50.8978 20.2805C50.8473 19.6923 50.7623 19.108 50.6428 18.5297C49.7924 14.2911 47.5004 10.4778 44.1563 7.73809C40.8124 4.99837 36.6227 3.5014 32.3 3.5014C27.9772 3.5014 23.7874 4.99837 20.4437 7.73809C17.0995 10.4774 14.8075 14.2907 13.9572 18.5297C13.8376 19.108 13.7526 19.6924 13.7022 20.2805C13.6343 20.8846 13.6001 21.4918 13.6001 22.0997C13.6001 22.4397 13.6172 22.7797 13.6172 23.1197C13.6498 23.7519 13.7177 24.3822 13.821 25.0068C14.5154 29.4085 16.7584 33.4184 20.1458 36.3132C23.5337 39.2086 27.8436 40.7993 32.3003 40.7993C36.7571 40.7993 41.0667 39.2086 44.4549 36.3132C47.8423 33.4179 50.0853 29.4081 50.7797 25.0068C50.8829 24.3822 50.9509 23.7519 50.9835 23.1197C50.9835 22.7797 51.0006 22.4397 51.0006 22.0997C51.0006 21.4918 50.9664 20.8846 50.8985 20.2805H50.8978ZM42.4999 22.6438C42.3663 22.8407 42.2126 23.0229 42.0407 23.1876L39.9669 25.2105C39.8998 25.2704 39.8679 25.36 39.8819 25.4488L40.3919 28.288V28.2876C40.5464 29.1945 40.3562 30.1265 39.8591 30.9005C39.3621 31.6746 38.5937 32.2351 37.7045 32.4719C36.8154 32.7087 35.8702 32.6047 35.054 32.1805L32.4698 30.8376C32.3821 30.8038 32.2854 30.8038 32.1977 30.8376L29.6135 32.1976H29.6139C29.0033 32.5197 28.3142 32.6636 27.6259 32.6127C26.9371 32.5615 26.2768 32.3175 25.7206 31.9088C25.1647 31.5123 24.7325 30.9666 24.4737 30.3348C24.2149 29.7034 24.1405 29.0112 24.2589 28.3388L24.7518 25.4996C24.7606 25.4165 24.7287 25.3345 24.6668 25.2788L22.5756 23.2726C22.398 23.0965 22.2387 22.9026 22.0998 22.6947C21.4539 21.7672 21.2779 20.5917 21.6239 19.5155C21.734 19.1656 21.8941 18.8336 22.0998 18.5297C22.4701 17.9995 22.9748 17.5772 23.5619 17.3055C23.8894 17.1503 24.2392 17.047 24.599 16.9996L27.4719 16.5746C27.5671 16.5663 27.6514 16.5082 27.6927 16.4217L28.1007 15.6055L28.9336 13.9055L28.9677 13.8205C29.2751 13.2054 29.7483 12.6882 30.3341 12.3277C30.92 11.9672 31.5951 11.7774 32.2827 11.7805C32.9669 11.7744 33.6389 11.9607 34.2222 12.3186C34.8054 12.6764 35.2764 13.191 35.5806 13.8038L35.6315 13.9059L36.4815 15.6059L36.8723 16.3879L36.8727 16.3876C36.9217 16.4673 37.0021 16.523 37.0939 16.5405L39.9839 16.9313V16.9317C40.3865 16.9943 40.7766 17.1203 41.1397 17.3055C41.6843 17.5768 42.1518 17.9798 42.4997 18.4788C42.702 18.7725 42.8621 19.0928 42.9756 19.4305C43.3289 20.5173 43.1528 21.7061 42.4997 22.6438L42.4999 22.6438Z" fill="#F55656"/>
<path d="M45.8998 39.508V49.198C45.9013 49.7854 45.5993 50.3322 45.1007 50.643C44.5952 50.95 43.9692 50.9819 43.4349 50.728L38.5557 48.2801L32.9965 50.7622H32.9969C32.551 50.9493 32.0486 50.9493 31.6027 50.7622L26.0439 48.2801L21.1647 50.728C20.6304 50.9819 20.0043 50.95 19.4989 50.643C19.0003 50.3322 18.6982 49.7854 18.6997 49.198V39.508C19.7615 40.3443 20.8998 41.0786 22.0997 41.7009C25.2489 43.3428 28.7483 44.2001 32.2997 44.2001C35.8512 44.2001 39.3505 43.3429 42.4997 41.7009C43.6996 41.0786 44.8379 40.3443 45.8997 39.508H45.8998Z" fill="#F55656"/>
</svg>
