<?xml version="1.0" ?><svg data-name="Buildings 2" height="60" id="Buildings_2" viewBox="0 0 60 60" width="60" xmlns="http://www.w3.org/2000/svg"><title/><path d="M58,36a1.00288,1.00288,0,0,1-1-1V18H52a1,1,0,0,1,0-2h6a.99042.99042,0,0,1,1,1V35A1.00319,1.00319,0,0,1,58,36Z" style="fill:#6e6d9e"/><path d="M2,36a1.00288,1.00288,0,0,1-1-1V17a1.03173,1.03173,0,0,1,.29-.71A1.05006,1.05006,0,0,1,2,16H14a1,1,0,0,1,0,2H3V35A1.00319,1.00319,0,0,1,2,36ZM48,18H22a1,1,0,0,1,0-2H48a1,1,0,0,1,0,2ZM18,18a1,1,0,1,1,1-1A1.00288,1.00288,0,0,1,18,18Z" style="fill:#6e6d9e"/><path d="M33.99854,36a1,1,0,0,1-1-1V4a4,4,0,0,1,8,0V7a1,1,0,0,1-2,0V4a2,2,0,0,0-4,0V35A1,1,0,0,1,33.99854,36Z" style="fill:#6e6d9e"/><path d="M47.99854,36a1,1,0,0,1-1-1V4a4,4,0,0,1,8,0V7a1,1,0,0,1-2,0V4a2,2,0,0,0-4,0V35A1,1,0,0,1,47.99854,36Z" style="fill:#6e6d9e"/><path d="M47.99854,33h-14a1,1,0,0,1,0-2h14a1,1,0,0,1,0,2Z" style="fill:#6e6d9e"/><path d="M47.99854,28h-14a1,1,0,0,1,0-2h14a1,1,0,0,1,0,2Z" style="fill:#6e6d9e"/><path d="M45,23H33.99854a1,1,0,0,1,0-2H45a1,1,0,0,1,0,2Z" style="fill:#6e6d9e"/><path d="M53.46289,46a5.95889,5.95889,0,0,1-4.24219-1.75732l-1.75781-1.75781-1.75732,1.75781a5.99958,5.99958,0,0,1-8.48486,0l-1.75781-1.75781-1.75732,1.75781a5.99958,5.99958,0,0,1-8.48486,0l-1.75781-1.75781-1.75732,1.75781a5.99958,5.99958,0,0,1-8.48486,0l-1.75781-1.75781L9.70557,44.24268a5.99958,5.99958,0,0,1-8.48486,0,.99989.99989,0,0,1,1.41406-1.41406,4.09666,4.09666,0,0,0,5.65674,0l2.46436-2.46484a1.02932,1.02932,0,0,1,1.41406,0l2.46484,2.46484a4.09666,4.09666,0,0,0,5.65674,0l2.46436-2.46484a1.02932,1.02932,0,0,1,1.41406,0l2.46484,2.46484a4.09666,4.09666,0,0,0,5.65674,0l2.46436-2.46484a1.02932,1.02932,0,0,1,1.41406,0l2.46484,2.46484a4.09666,4.09666,0,0,0,5.65674,0l2.46436-2.46484a1.02932,1.02932,0,0,1,1.41406,0l2.46484,2.46484a4.09666,4.09666,0,0,0,5.65674,0,.99989.99989,0,0,1,1.41406,1.41406A5.96085,5.96085,0,0,1,53.46289,46Z" style="fill:#6e6d9e"/><path d="M53.4624,56.00049a5.957,5.957,0,0,1-4.24219-1.7583l-1.75732-1.75732-1.75732,1.75781a5.9984,5.9984,0,0,1-8.48535-.00049l-1.75732-1.75732-1.75732,1.75781a5.9984,5.9984,0,0,1-8.48535-.00049L23.46,52.48193A.99989.99989,0,0,1,24.874,51.06787l1.76074,1.76074a4.09474,4.09474,0,0,0,5.65674,0l2.46436-2.46484a1.02932,1.02932,0,0,1,1.41406,0l2.46484,2.46484a4.09474,4.09474,0,0,0,5.65674,0l2.46436-2.46484a1.02932,1.02932,0,0,1,1.41406,0l2.46484,2.46484a4.09474,4.09474,0,0,0,5.65674,0,.99989.99989,0,0,1,1.41406,1.41406A5.95958,5.95958,0,0,1,53.4624,56.00049Zm-36,0a5.957,5.957,0,0,1-4.24219-1.7583l-1.75732-1.75732L9.70557,54.24268a5.9984,5.9984,0,0,1-8.48535-.00049.99989.99989,0,0,1,1.415-1.41309,4.09509,4.09509,0,0,0,5.65625-.00049l2.46436-2.46484a1.02932,1.02932,0,0,1,1.41406,0l2.46484,2.46484a4.09474,4.09474,0,0,0,5.65674,0l.34033-.34033a.99989.99989,0,0,1,1.41406,1.41406l-.34033.34033A5.95958,5.95958,0,0,1,17.4624,56.00049Z" style="fill:#6e6d9e"/></svg>