<?xml version="1.0" ?><svg height="60" id="Sport" viewBox="0 0 60 60" width="60" xmlns="http://www.w3.org/2000/svg"><title/><path d="M59,41H43.25a1,1,0,0,1,0-2H58V33.22949A1.00011,1.00011,0,0,1,60,33.25V40a.99042.99042,0,0,1-1,1ZM16.75,41H1a.99042.99042,0,0,1-1-1V15.75a1,1,0,0,1,2,0V39H16.75a1,1,0,0,1,0,2ZM59,29.25a1.00288,1.00288,0,0,1-1-1V3H2V7.75a1,1,0,0,1-2,0V2a1.05006,1.05006,0,0,1,.29-.71A1.04778,1.04778,0,0,1,1,1H59a1.04871,1.04871,0,0,1,.71.29A1.03212,1.03212,0,0,1,60,2V28.25A1.00319,1.00319,0,0,1,59,29.25ZM1,12.75a1,1,0,1,1,1-1A1.00288,1.00288,0,0,1,1,12.75Z" style="fill:#6e6d9e"/><path d="M19,33a.99974.99974,0,0,1-1-1V18a.99974.99974,0,0,1,1-1H41a.99974.99974,0,0,1,1,1V28a1,1,0,0,1-2,0V19H20V32A.99974.99974,0,0,1,19,33Z" style="fill:#6e6d9e"/><path d="M22.001,59a.95837.95837,0,0,1-.16553-.01367,1.00013,1.00013,0,0,1-.82178-1.15039l.418-2.50684a18.94338,18.94338,0,0,0-.06738-6.625L19.01709,36.18457a1.00009,1.00009,0,0,1,1.96582-.36914L23.33008,48.335a20.93464,20.93464,0,0,1,.07422,7.32227l-.418,2.50684A1.00051,1.00051,0,0,1,22.001,59Z" style="fill:#6e6d9e"/><path d="M37.999,59a1.00051,1.00051,0,0,1-.98535-.83594l-.418-2.50684a20.93464,20.93464,0,0,1,.07422-7.32227l1.69189-9.02539a1.00009,1.00009,0,0,1,1.96582.36914L38.63574,48.7041a18.94338,18.94338,0,0,0-.06738,6.625l.418,2.50684a1.00013,1.00013,0,0,1-.82178,1.15039A.95837.95837,0,0,1,37.999,59Z" style="fill:#6e6d9e"/><path d="M41,37H36a1,1,0,0,1,0-2h5a1,1,0,0,0,0-2H19a1,1,0,0,0,0,2h3a1,1,0,0,1,0,2H19a3,3,0,0,1,0-6H41a3,3,0,0,1,0,6Z" style="fill:#6e6d9e"/><path d="M22.001,59a1,1,0,0,1-.55566-1.832l3-2a1.00112,1.00112,0,0,1,1.1792.05078L27.5,56.71973l1.87549-1.501a1.00259,1.00259,0,0,1,1.249,0l1.87549,1.5.5791-.46289a.99973.99973,0,1,1,1.25,1.56055l-1.2041.96387a1.00066,1.00066,0,0,1-1.24951.001L30,57.28027l-1.87549,1.501a1.00259,1.00259,0,0,1-1.249,0l-1.9292-1.54395L22.55469,58.832A.99825.99825,0,0,1,22.001,59Z" style="fill:#6e6d9e"/></svg>