<?xml version="1.0" ?>
<svg height="60" id="Sport" viewBox="0 0 60 60" width="60" xmlns="http://www.w3.org/2000/svg"><title/>
<path stroke="currentColor" stroke-width="2px" d="M30,60A29.88364,29.88364,0,0,1,8.52979,50.94971.99522.99522,0,0,1,8.54,49.54a1.01667,1.01667,0,0,1,1.41992.02A28.00362,28.00362,0,0,0,50.7998,11.25a.9974.9974,0,0,1,.06982-1.41016,1.02649,1.02649,0,0,1,1.41016.06982A30.00366,30.00366,0,0,1,30,60ZM6.65967,48.21a.98529.98529,0,0,1-.7998-.3999c-.01025,0-.01025,0-.01025-.01025a1.00467,1.00467,0,0,1,.21045-1.3999,1.02371,1.02371,0,0,1,1.3999.21973.99285.99285,0,0,1-.21,1.39014A.97987.97987,0,0,1,6.65967,48.21Zm-2.1499-3.37012a1.00584,1.00584,0,0,1-.87988-.52A30.1244,30.1244,0,0,1,0,30,30.01108,30.01108,0,0,1,30,0,29.76152,29.76152,0,0,1,47.67969,5.75977a1.00453,1.00453,0,0,1,.22021,1.3999A1.03333,1.03333,0,0,1,46.5,7.37988a28.00182,28.00182,0,0,0-41.11035,35.98,1.04666,1.04666,0,0,1,.08008.75977,1.02878,1.02878,0,0,1-.48.6001A1.16737,1.16737,0,0,1,4.50977,44.83984Z" fill="currentColor"/>
<path stroke="currentColor" stroke-width="2px" d="M23,39A16.00056,16.00056,0,0,1,10.146,13.47168a.99991.99991,0,1,1,1.60547,1.19238,13.99939,13.99939,0,1,0,2.59424-2.66943,1,1,0,0,1-1.2373-1.57129A15.83792,15.83792,0,0,1,23,7a16,16,0,0,1,0,32Z" fill="currentColor"/>
<path d="M22.5,23h-1a4.5,4.5,0,0,1,0-9h1a4.5,4.5,0,0,1,0,9Zm-1-7a2.5,2.5,0,0,0,0,5h1a2.5,2.5,0,0,0,0-5Z" fill="currentColor"/>
<path d="M23.5,30h-3a4.50175,4.50175,0,0,1-4.09375-6.37061,1,1,0,0,1,1.81836.833A2.47444,2.47444,0,0,0,18,25.5,2.50294,2.50294,0,0,0,20.5,28h3a2.5,2.5,0,0,0,0-5h-3a1,1,0,0,1,0-2h3a4.5,4.5,0,0,1,0,9Z" fill="currentColor"/></svg>