<?xml version="1.0" ?>
<svg height="60" id="Sport" viewBox="0 0 60 60" width="60" xmlns="http://www.w3.org/2000/svg"><title/>
<path d="M11.01318,45.8877a1,1,0,0,1-.707-1.707l3.12451-3.12451a10.09761,10.09761,0,0,0,2.51172-9.77637.99977.99977,0,1,1,1.93652-.498,12.077,12.077,0,0,1-3.03418,11.68848l-3.12451,3.12451A.99676.99676,0,0,1,11.01318,45.8877Z" fill="currentColor"/><path d="M17.84961,47.24951a1,1,0,0,1-.707-1.707l.38721-.38721a12.0732,12.0732,0,0,1,11.68848-3.03418.99977.99977,0,0,1-.498,1.93652,10.10044,10.10044,0,0,0-9.77637,2.51172l-.38721.38721A.99676.99676,0,0,1,17.84961,47.24951Z" fill="currentColor"/><path d="M54.22949,23.52051a.99676.99676,0,0,1-.707-.293L33.53369,3.23877a.99989.99989,0,0,1,1.41406-1.41406L54.93652,21.81348a1,1,0,0,1-.707,1.707Z" fill="currentColor"/><path d="M51.31982,37.00684a.99676.99676,0,0,1-.707-.293L26.38721,12.48779a.99989.99989,0,0,1,1.41406-1.41406L52.02686,35.2998a1,1,0,0,1-.707,1.707Z" fill="currentColor"/><path d="M41.07227,43.15527a.99676.99676,0,0,1-.707-.293L27.03711,29.53418a.99989.99989,0,0,1,1.41406-1.41406L41.7793,41.44824a1,1,0,0,1-.707,1.707ZM24.916,26.999a.99676.99676,0,0,1-.707-.293L17.1377,19.63477a.99989.99989,0,0,1,1.41406-1.41406L25.623,25.292a1,1,0,0,1-.707,1.707Z" fill="currentColor"/><path d="M17.543,34.3584a1,1,0,0,1-.707-1.707L47.708,1.7793a.99989.99989,0,0,1,1.41406,1.41406L18.25,34.06543A.99676.99676,0,0,1,17.543,34.3584Z" fill="currentColor"/><path d="M26.6416,43.457a1,1,0,0,1-.707-1.707L53.90479,13.77979a.99989.99989,0,0,1,1.41406,1.41406L27.34863,43.16406A.99676.99676,0,0,1,26.6416,43.457Z" fill="currentColor"/><path d="M4.86426,60A4.86447,4.86447,0,0,1,1.4248,51.6958L8.04,45.08057a3.31451,3.31451,0,0,1,4.57959,0,.99989.99989,0,0,1-1.41406,1.41406,1.2684,1.2684,0,0,0-1.75146,0L2.83887,53.10986a2.86511,2.86511,0,0,0,0,4.05127,2.92376,2.92376,0,0,0,3.38281.498,1.00015,1.00015,0,0,1,.94922,1.76074A4.8797,4.8797,0,0,1,4.86426,60Zm4.76367-3.1626a1,1,0,0,1-.707-1.707l4.58447-4.58447a1.23835,1.23835,0,0,0,0-1.75146.99989.99989,0,0,1,1.41406-1.41406,3.23762,3.23762,0,0,1,0,4.57959L10.335,56.54443A.99676.99676,0,0,1,9.62793,56.8374Z" fill="currentColor"/><path d="M9,18a9.00094,9.00094,0,0,1-2.53613-.36279,1,1,0,1,1,.56348-1.91895A7.00466,7.00466,0,1,0,4.05029,13.9502a.99989.99989,0,0,1-1.41406,1.41406A9.00007,9.00007,0,1,1,9,18Z" fill="currentColor"/><path d="M13.98291,13.01709A9.00539,9.00539,0,0,1,5.0498,5.12158a1.00009,1.00009,0,0,1,1.98535-.24316A7.00826,7.00826,0,0,0,16.187,10.66357a.99995.99995,0,0,1,.62891,1.89844A8.98957,8.98957,0,0,1,13.98291,13.01709Z" fill="currentColor"/><path d="M33.77979,44.68994a18.53464,18.53464,0,0,1-13.23-5.24023,18.52351,18.52351,0,0,1-5.23975-13.25,26.22186,26.22186,0,0,1,7.98-18.23C24.02979,7.23,24.82959,6.52,25.6499,5.84961A1.03941,1.03941,0,0,1,27.06006,6a1.00161,1.00161,0,0,1-.15039,1.40967,26.23354,26.23354,0,0,0-2.21,1.98,24.1793,24.1793,0,0,0-7.38965,16.81006,16.27463,16.27463,0,0,0,4.65967,11.83008A16.35612,16.35612,0,0,0,33.7998,42.68994,24.2207,24.2207,0,0,0,50.60986,35.2998a26.89628,26.89628,0,0,0,3.00977-3.58008A1.02234,1.02234,0,0,1,55.00977,31.48.98973.98973,0,0,1,55.25,32.86963,28.01361,28.01361,0,0,1,52.02979,36.71a26.26694,26.26694,0,0,1-18.23,7.98ZM56.46973,29.85986a.979.979,0,0,1-.43994-.1001,1.01125,1.01125,0,0,1-.4502-1.33984A22.63045,22.63045,0,0,0,58,18.48,16.33975,16.33975,0,0,0,53.34961,6.6499,16.33823,16.33823,0,0,0,41.52,2a21.94542,21.94542,0,0,0-7.99023,1.5498.999.999,0,0,1-.73-1.85986A23.993,23.993,0,0,1,41.52,0h.02A18.46916,18.46916,0,0,1,54.75977,5.23975,18.50077,18.50077,0,0,1,60,18.48,24.55857,24.55857,0,0,1,57.36963,29.2998.983.983,0,0,1,56.46973,29.85986ZM29.56982,5.36963a1.004,1.004,0,0,1-.5-1.86963,1.02824,1.02824,0,0,1,1.37012.35986A1.00752,1.00752,0,0,1,30.07959,5.23,1.02865,1.02865,0,0,1,29.56982,5.36963Z" fill="currentColor"/></svg>