<svg width="26" height="26" viewBox="0 0 26 26" fill="#4e4e68" xmlns="http://www.w3.org/2000/svg">
<path d="M12.9998 11.8508L14.7492 10.1014C13.1051 8.19098 12.2019 5.75364 12.204 3.23322C12.204 2.97931 12.2137 2.72286 12.2315 2.4715C9.98078 2.63009 7.84078 3.50835 6.12756 4.97654L12.9998 11.8508ZM15.9014 8.94915L19.872 4.97654C18.1836 3.52928 16.0798 2.65457 13.8631 2.4781C13.8422 2.72693 13.8306 2.9788 13.8306 3.23322C13.8285 5.32255 14.5616 7.346 15.9014 8.94915ZM17.0506 10.0983C18.6535 11.4387 20.677 12.1724 22.7665 12.1707C23.0204 12.1707 23.2744 12.159 23.5217 12.1382C23.3455 9.9209 22.4708 7.81656 21.0232 6.12775L17.0506 10.0983ZM8.94896 15.9016C7.34607 14.5611 5.32256 13.8275 3.23303 13.8292C2.97844 13.8292 2.72674 13.8401 2.47791 13.8617C2.65406 16.079 3.5288 18.1834 4.97635 19.8722L8.94896 15.9016ZM12.9998 14.1492L11.2504 15.8986C12.8944 17.809 13.7976 20.2463 13.7955 22.7667C13.7955 23.0206 13.7859 23.2771 13.7681 23.5284C16.0188 23.37 18.1588 22.4917 19.872 21.0234L12.9998 14.1492ZM22.7665 13.7957C20.2461 13.7978 17.8088 12.8946 15.8984 11.2506L14.149 13L21.0232 19.8722C22.4925 18.1594 23.3718 16.0193 23.5313 13.7683C23.2769 13.7861 23.0225 13.7957 22.7665 13.7957ZM11.8506 13L4.97635 6.12775C3.50697 7.84052 2.62761 9.98059 2.46826 12.2317C2.72217 12.2139 2.97607 12.2042 3.22998 12.2042C5.7504 12.2021 8.18775 13.1053 10.0981 14.7494L11.8506 13ZM6.12756 21.0234C7.81596 22.4707 9.91972 23.3454 12.1365 23.5218C12.1578 23.273 12.1687 23.0213 12.169 22.7667C12.1707 20.6772 11.4371 18.6537 10.0966 17.0508L6.12756 21.0234Z" fill="#4e4e68"/>
</svg>
