<svg width="21" height="25" viewBox="0 0 21 25" fill="none" xmlns="http://www.w3.org/2000/svg">
<g clip-path="url(#clip0_705_19)">
<path d="M21.0004 8.92847V16.0323C21.0004 18.4107 20.0662 20.6917 18.4032 22.3735C16.7402 24.0552 14.4847 25 12.1328 25V25V17.8962C12.1328 15.5178 13.0671 13.2368 14.7301 11.5551C16.3931 9.87328 18.6486 8.92847 21.0004 8.92847V8.92847Z" fill="currentColor"/>
<path d="M9.87695 9.98966V20.2731C8.57974 20.2733 7.29517 20.0152 6.0966 19.5134C4.89802 19.0117 3.80891 18.2761 2.89145 17.3486C1.97399 16.4212 1.24615 15.3201 0.749479 14.1082C0.252808 12.8963 -0.00296406 11.5973 -0.00323266 10.2855V2.14213e-07C1.29416 -0.000271485 2.57889 0.257918 3.7776 0.759824C4.9763 1.26173 6.0655 1.99752 6.98299 2.92517C7.90048 3.85282 8.62828 4.95417 9.12483 6.1663C9.62138 7.37844 9.87695 8.67762 9.87695 9.98966V9.98966Z" fill="currentColor"/>
<path d="M18.7465 5.05901C19.175 3.23727 18.0621 1.40919 16.2607 0.975865C14.4593 0.542539 12.6516 1.66806 12.2231 3.48979C11.7946 5.31153 12.9076 7.13961 14.709 7.57294C16.5104 8.00626 18.3181 6.88074 18.7465 5.05901Z" fill="currentColor"/>
</g>
<defs>
<clipPath id="clip0_705_19">
<rect width="21" height="25" fill="white"/>
</clipPath>
</defs>
</svg>
