<svg width="45" height="57" viewBox="0 0 45 57" fill="none" xmlns="http://www.w3.org/2000/svg">
<path d="M18.6072 1.21901C18.6772 0.89301 18.9062 0.62401 19.2152 0.50101C19.5252 0.37801 19.8762 0.41701 20.1512 0.60601C20.5458 0.878036 29.2895 7.04178 30.362 20.4398C30.3923 20.4027 30.4227 20.3653 30.4532 20.3277M18.6072 1.21901L18.5095 1.19784M18.6072 1.21901C18.4402 1.99001 17.4602 4.85101 15.7732 7.24301L8.33621 16.1659L8.34289 16.1583C10.5101 13.6971 13.4715 10.3339 15.6915 7.18538L15.6915 7.18538C17.3701 4.80524 18.3451 1.95686 18.5095 1.19784M18.6072 1.21901L18.5095 1.19802C18.5095 1.19796 18.5095 1.1979 18.5095 1.19784M18.5095 1.19784C18.5866 0.839074 18.8385 0.543323 19.1782 0.408101L19.1783 0.40806C19.5192 0.27281 19.9053 0.315652 20.2079 0.523597L20.208 0.523679C20.6119 0.80215 29.3404 6.95802 30.4532 20.3277M30.4532 20.3277C30.4572 20.3757 30.4611 20.4237 30.4649 20.4718L36.8472 11.773C36.5682 11.504 36.1592 11.423 35.7972 11.56C35.4352 11.697 35.1852 12.032 35.1562 12.418L35.0565 12.4105C35.0565 12.4105 35.0565 12.4105 35.0565 12.4105C35.0182 12.9153 34.8301 13.521 34.5331 14.1884C34.2366 14.8545 33.8344 15.5761 33.3734 16.311C32.4992 17.7044 31.4171 19.14 30.4532 20.3277ZM30.4702 23H30.4802M17.491 8.45264L17.491 8.45259C18.7123 6.71848 19.6112 4.74895 20.1418 3.31911C22.6711 5.64152 28.3702 12.1022 28.3702 23.163C28.3702 23.6161 28.6484 24.0242 29.0711 24.1882C29.4933 24.3521 29.9739 24.2411 30.2808 23.9077L30.2808 23.9077C30.5679 23.5955 31.7939 22.2436 33.1396 20.4881C34.4461 18.7838 35.871 16.6921 36.6564 14.7993C38.6928 17.5348 42.4672 23.9652 42.4672 34.038C42.4672 44.972 33.5888 53.866 22.6752 53.866C11.7611 53.866 2.88323 45.0204 2.88323 34.147C2.88323 26.8763 5.72202 22.5965 8.19653 19.6756L8.19654 19.6756C8.6416 19.1501 9.20174 18.5137 9.83646 17.7926C9.88661 17.7356 9.93723 17.6781 9.9883 17.6201L9.99264 17.6151C12.1886 15.1214 15.1998 11.7017 17.491 8.45264Z" fill="#4572ED" stroke="#4572ED" stroke-width="0.2"/>
</svg>
