<?xml version="1.0" ?><svg height="60" id="Sport" viewBox="0 0 60 60" width="60" xmlns="http://www.w3.org/2000/svg"><title/><path d="M24.99268,18.001A9.00717,9.00717,0,0,1,16.16992,7.24756a.99993.99993,0,0,1,1.96191.3877,7.01074,7.01074,0,0,0,2.98389,7.188,7.00046,7.00046,0,1,0-1.4873-10.3125,1.00023,1.00023,0,0,1-1.53711-1.28027A9.00056,9.00056,0,1,1,24.99268,18.001Z" style="fill:#6e6d9e"/><path d="M7.83447,60a3.19753,3.19753,0,0,1-1.75586-.52344.99987.99987,0,0,1,1.0957-1.67285A1.20435,1.20435,0,0,0,7.83594,58H7.8374a1.2081,1.2081,0,0,0,.85937-.35547,1.04325,1.04325,0,0,0-.00049-1.47705l-.11963-.11963a.99964.99964,0,0,1,0-1.41406l11.8374-11.8374c.56787-.56738,1.15186-1.13525,1.74414-1.69531L21.03174,39.9585a.99992.99992,0,0,1,1.42383-1.4043l1.84766,1.87354a1.00034,1.00034,0,0,1-.0332,1.43652c-.83154.76855-1.65283,1.55811-2.44189,2.34668L10.61719,55.42139a3.0457,3.0457,0,0,1-.50586,3.63672A3.19342,3.19342,0,0,1,7.83838,60ZM3.76807,56.84668a.99676.99676,0,0,1-.707-.293L.98145,54.47363a3.214,3.214,0,0,1,.00049-4.5459,3.11194,3.11194,0,0,1,3.63672-.50537l11.209-11.2085c.80469-.80566,1.60254-1.63574,2.37109-2.46729A1,1,0,0,1,19.66748,37.104c-.78564.85059-1.60205,1.69971-2.42529,2.52393L5.40625,51.46289a.99964.99964,0,0,1-1.41406,0l-.12061-.12061a1.07124,1.07124,0,0,0-1.47607,0A1.21477,1.21477,0,0,0,2.396,53.06006l2.0791,2.07959a1,1,0,0,1-.707,1.707Z" style="fill:#6e6d9e"/><path d="M27,39.13965a1.02415,1.02415,0,0,1-.77-.35986A1.04152,1.04152,0,0,1,26,38.04a.99666.99666,0,0,1,.35986-.67041c1.5498-1.29,3.16016-2.54,4.77979-3.71973l8.68018-6.28027a87.88662,87.88662,0,0,0,10.5498-9L56.23975,12.5a6.15543,6.15543,0,0,0-8.71-8.7002L41.66992,9.66992c-.04.04-.09033.08984-.12988.12988a1.01487,1.01487,0,0,1-1.41016,0,.98762.98762,0,0,1-.01025-1.41016l.05029-.0498L40.25977,8.25l5.85986-5.86035A8.15314,8.15314,0,1,1,57.6499,13.91992L51.79,19.77979A89.34289,89.34289,0,0,1,41,28.98l-8.68994,6.29C30.73,36.40967,29.16992,37.62988,27.6499,38.8999h-.01025A1.01393,1.01393,0,0,1,27,39.13965Zm-8.07031-1.71a.98882.98882,0,0,1-1-.96,1.002,1.002,0,0,1,.26025-.71973A88.16126,88.16126,0,0,0,24.77,27.73L31.0498,19.0498c1.1499-1.58984,2.37012-3.16016,3.62988-4.68018a1.02917,1.02917,0,0,1,1.41016-.12988,1.00866,1.00866,0,0,1,.12988,1.41016c-1.23,1.48-2.41992,3.02-3.5498,4.56982L26.38965,28.8999a87.59537,87.59537,0,0,1-6.73,8.21A1.00521,1.00521,0,0,1,18.92969,37.42969ZM38.06982,12.98975A.98906.98906,0,0,1,37.3999,12.73a.99147.99147,0,0,1-.07031-1.41016.00972.00972,0,0,0,.01025-.00977A1.03524,1.03524,0,0,1,38.75,11.25a1.01378,1.01378,0,0,1,.31982.68994,1.00571,1.00571,0,0,1-1,1.0498Z" style="fill:#6e6d9e"/><path d="M9.11768,56.13818a.99763.99763,0,0,1-.71777-.30371l-1.418-1.46094A1,1,0,0,1,8.41748,52.981l1.418,1.46094a1,1,0,0,1-.71777,1.69629Z" style="fill:#6e6d9e"/></svg>