<?xml version="1.0" ?><svg height="60" id="Sport" viewBox="0 0 60 60" width="60" xmlns="http://www.w3.org/2000/svg"><title/><path d="M3,51a1.00319,1.00319,0,0,1-1-1V37a1,1,0,0,1,2,0V50A1.00319,1.00319,0,0,1,3,51ZM3,34a1,1,0,1,1,1-1A1.00319,1.00319,0,0,1,3,34Zm0-4a1.00319,1.00319,0,0,1-1-1V3A1,1,0,0,1,4,3V29A1.00319,1.00319,0,0,1,3,30Z" style="fill:#6e6d9e"/><path d="M53,26H6a1,1,0,0,1,0-2H53a1,1,0,0,1,0,2Z" style="fill:#6e6d9e"/><path d="M57,8H39a1,1,0,0,1,0-2H57a1,1,0,0,1,0,2ZM35,8H7A1,1,0,0,1,7,6H35a1,1,0,0,1,0,2Z" style="fill:#6e6d9e"/><path d="M21,22a.99942.99942,0,0,1-1-1V7a1,1,0,0,1,2,0V21A.99942.99942,0,0,1,21,22Z" style="fill:#6e6d9e"/><path d="M12,26a.99942.99942,0,0,1-1-1V7a1,1,0,0,1,2,0V25A.99942.99942,0,0,1,12,26Z" style="fill:#6e6d9e"/><path d="M30,26a.99942.99942,0,0,1-1-1V7a1,1,0,0,1,2,0V25A.99942.99942,0,0,1,30,26Z" style="fill:#6e6d9e"/><path d="M39,26a.99942.99942,0,0,1-1-1V7a1,1,0,0,1,2,0V25A.99942.99942,0,0,1,39,26Z" style="fill:#6e6d9e"/><path d="M48,26a.99942.99942,0,0,1-1-1V11a1,1,0,0,1,2,0V25A.99942.99942,0,0,1,48,26Z" style="fill:#6e6d9e"/><path d="M57,17H3a1,1,0,0,1,0-2H57a1,1,0,0,1,0,2Z" style="fill:#6e6d9e"/><path d="M57,55a.99942.99942,0,0,1-1-1V3a1,1,0,0,1,2,0V54A.99942.99942,0,0,1,57,55Z" style="fill:#6e6d9e"/><path d="M5,58a.99942.99942,0,0,1-1-1V55H2v2a1,1,0,0,1-2,0V55a2.00261,2.00261,0,0,1,2-2H4a2.00261,2.00261,0,0,1,2,2v2A.99942.99942,0,0,1,5,58Z" style="fill:#6e6d9e"/><path d="M59,58a.99942.99942,0,0,1-1-1V55H56v2a1,1,0,0,1-2,0V55a2.00261,2.00261,0,0,1,2-2h2a2.00261,2.00261,0,0,1,2,2v2A.99942.99942,0,0,1,59,58Z" style="fill:#6e6d9e"/></svg>