<?xml version="1.0" ?><svg height="60" id="Sport" viewBox="0 0 60 60" width="60" xmlns="http://www.w3.org/2000/svg"><title/><path d="M8.03516,60a3.82142,3.82142,0,0,1-2.71973-1.12744l-4.188-4.188a3.84858,3.84858,0,0,1,.375-5.77148l9.56738-7.35937a4.88853,4.88853,0,0,0,1.89893-3.84961,4.72942,4.72942,0,0,0-.68359-2.45068A18.22946,18.22946,0,0,1,9.39258,25.814a15.41944,15.41944,0,0,1,.24463-2.71777,1.00021,1.00021,0,1,1,1.96875.35449,13.36779,13.36779,0,0,0-.21338,2.36328,16.05253,16.05253,0,0,0,2.60352,8.40381,6.728,6.728,0,0,1,.97266,3.48633,6.89938,6.89938,0,0,1-2.6792,5.43457L2.72168,50.49854a1.84831,1.84831,0,0,0-.17969,2.772l4.1875,4.188A1.89682,1.89682,0,0,0,9.501,57.27881l1.11328-1.44727a1,1,0,0,1,1.585,1.21973L11.08643,58.498A3.81984,3.81984,0,0,1,8.03516,60Zm5.81006-5.729a1,1,0,0,1-.792-1.60986l3.80615-4.94775a6.90151,6.90151,0,0,1,5.43506-2.67969,6.72716,6.72716,0,0,1,3.4917.97607,15.981,15.981,0,0,0,8.7998,2.64209L12.6001,26.666A.99989.99989,0,0,1,14.01416,25.252l23.4751,23.4751a.99948.99948,0,0,1-.53223,1.69141c-3.99463.71045-8.084-.19678-12.2085-2.69873a4.73,4.73,0,0,0-2.4541-.686,4.88921,4.88921,0,0,0-3.8501,1.89941l-3.80615,4.94775A.99778.99778,0,0,1,13.84521,54.271Z" style="fill:#6e6d9e"/><path d="M41,49.0498a.99345.99345,0,0,1-.90039-.56982,1.00116,1.00116,0,0,1,.47021-1.33008c3.46-1.6499,7.00977-4.68994,10.85986-9.27a25.95761,25.95761,0,0,0,6.5-16.41016,19.07123,19.07123,0,0,0-5.71-13.68994c-.10986-.1001-.21-.21-.31982-.31006A.95887.95887,0,0,1,51.59961,6.77a.94292.94292,0,0,1,.28027-.71A1.01458,1.01458,0,0,1,53.29,6.02979c.08984.08008.16992.16992.25977.25l.08008.08984a20.94063,20.94063,0,0,1,6.2998,15.1001A27.9279,27.9279,0,0,1,52.96,39.15967c-4.03027,4.80029-7.80029,8-11.52,9.78027,0,.00977,0,.00977-.01025.00977A.90222.90222,0,0,1,41,49.0498Zm8.46973-43.79h0a1.03231,1.03231,0,0,1-.54-.16016,1.00964,1.00964,0,0,1-.43994-.62988A1.07122,1.07122,0,0,1,48.62988,3.71a1.04165,1.04165,0,0,1,1.39014-.29.99142.99142,0,0,1,.42969.64014.9557.9557,0,0,1-.13965.75A1,1,0,0,1,49.46973,5.25977Zm-3.54-1.83984a.92908.92908,0,0,1-.36963-.07031A20.48583,20.48583,0,0,0,31.31982,3.21a1.02308,1.02308,0,0,1-1.27-.62012,1.0069,1.0069,0,0,1,.62988-1.27,22.46879,22.46879,0,0,1,15.62012.16992A1.01088,1.01088,0,0,1,46.85986,2.79.99987.99987,0,0,1,45.92969,3.41992Z" style="fill:#6e6d9e"/><path d="M10.61963,24.27a1.0595,1.0595,0,0,1-.17969-.01025,1.0004,1.0004,0,0,1-.64014-.41992.977.977,0,0,1-.16016-.74023,18.86884,18.86884,0,0,1,2.5-6.38965,1.00139,1.00139,0,0,1,1.83008.27,1.05783,1.05783,0,0,1-.10986.75977,16.68615,16.68615,0,0,0-2.25,5.71A1.00707,1.00707,0,0,1,10.61963,24.27Z" style="fill:#6e6d9e"/><path d="M21,18.00049a8.94,8.94,0,0,1-6.36377-2.63672c-.105-.104-.208-.21289-.30811-.32275a9.009,9.009,0,0,1-1.64307-9.48975,1,1,0,1,1,1.84766.76563,7.0089,7.0089,0,0,0,1.27637,7.37988c.07617.084.15674.16846.23926.251a7,7,0,0,0,10.32227-9.4375q-.19775-.2373-.41992-.459A6.95483,6.95483,0,0,0,21,2h-.002A7.00337,7.00337,0,0,0,16.6123,3.54541a1,1,0,0,1-1.25586-1.55664A9.01251,9.01251,0,0,1,20.998,0h.00146a8.93981,8.93981,0,0,1,6.36426,2.63623c.18994.189.37012.38672.54.58936A9.001,9.001,0,0,1,21,18.00049Z" style="fill:#6e6d9e"/></svg>