<?xml version="1.0" ?>
<svg height="60" id="Sport" viewBox="0 0 60 60" width="60" xmlns="http://www.w3.org/2000/svg"><title/>
<path fill="currentColor" d="M40,33.40039a1,1,0,0,1-1-1C39,29.52344,36.897,27,34.5,27a4.40433,4.40433,0,0,0-3.66455,2.03271A5.19467,5.19467,0,0,0,30,31.8999a1,1,0,1,1-2,0,7.18987,7.18987,0,0,1,1.16455-3.9668A6.39905,6.39905,0,0,1,34.5,25c3.52344,0,6.5,3.38916,6.5,7.40039A1,1,0,0,1,40,33.40039Z" />
<path fill="currentColor" d="M52.668,33a.99975.99975,0,0,1-.98535-.83594C51.23828,29.48828,49.97363,25,46.5,25c-2.98145,0-5.5,3.20557-5.5,7a1,1,0,0,1-2,0c0-4.9624,3.36426-9,7.5-9,3.668,0,6.209,3.13818,7.15527,8.83594A1.00056,1.00056,0,0,1,52.668,33Z" />
<path fill="currentColor" d="M30,55h0c-7.86035,0-15.27-1.17041-20.86035-3.29C3.1499,49.40967.07959,46.48,0,43c0-2,1.15967-3.9502,3.33984-5.63037a1.02126,1.02126,0,0,1,1.3999.18018,1.00116,1.00116,0,0,1-.17969,1.3999C2.84961,40.27979,1.98975,41.63965,2,43c-.09033,2.37988,2.91992,5,7.84961,6.83984C15.19971,51.87988,22.34961,53,29.98,53H30.04c7.60986,0,15.00977-1.18018,20.30957-3.23a1.012,1.012,0,0,1,1.30029.56982,1.00065,1.00065,0,0,1-.02.75977.98431.98431,0,0,1-.55029.53027C45.46,53.7998,37.98,55,30,55Zm24.32959-5.01025a.99859.99859,0,0,1-.50977-1.85986,1.02579,1.02579,0,0,1,1.37012.35986,1.00344,1.00344,0,0,1-.86035,1.5ZM57.46973,47.54a.97182.97182,0,0,1-.66992-.26025.9971.9971,0,0,1-.08008-1.41016A4.29243,4.29243,0,0,0,58,43c.08984-2.38037-2.92041-5-7.8501-6.84033C44.7998,34.11963,37.6499,33,30.02,33H30c-1.02,0-2.02.02-2.96.06006a1.0008,1.0008,0,0,1-.08008-2C27.92969,31.02,28.94971,31,30,31c7.85986,0,15.27,1.16992,20.85986,3.29C56.84961,36.58984,59.91992,39.52,60,43a6.36179,6.36179,0,0,1-1.79,4.21A1.00092,1.00092,0,0,1,57.46973,47.54ZM7.37988,37.11963A1.01678,1.01678,0,0,1,6.46973,36.54a1.00032,1.00032,0,0,1-.02979-.76025A1.01816,1.01816,0,0,1,6.94971,35.21a44.85486,44.85486,0,0,1,11.8999-3.38037,1.02223,1.02223,0,0,1,1.14014.84033,1.00882,1.00882,0,0,1-.83984,1.14014A42.70825,42.70825,0,0,0,7.7998,37.02,1.0037,1.0037,0,0,1,7.37988,37.11963Z" />
<path fill="currentColor" d="M23,45a1,1,0,0,1-1-1V4a1,1,0,0,1,2,0V44A1,1,0,0,1,23,45Z"/>
<path fill="currentColor" d="M27,18.5459a1.00036,1.00036,0,0,1-.3418-1.94043L41.90039,11.063,22.69678,4.95313a1.0002,1.0002,0,0,1,.60645-1.90625l22,7a1.00016,1.00016,0,0,1,.03857,1.89307l-18,6.54541A.99977.99977,0,0,1,27,18.5459Z" />
<path fill="currentColor"  d="M30,46c-2.31787,0-4-1.05127-4-2.5a1,1,0,0,1,2,0,3.44271,3.44271,0,0,0,2,.5,2.8128,2.8128,0,0,0,2.0166-.583.95837.95837,0,0,1,.9917-.9585A1.02931,1.02931,0,0,1,34,43.5C34,44.94873,32.31787,46,30,46Z" /></svg>