<?xml version="1.0" ?><svg height="60" id="Sport" viewBox="0 0 60 60" width="60" xmlns="http://www.w3.org/2000/svg"><title/><path d="M43,40H13a1,1,0,0,1,0-2H43a1,1,0,0,1,0,2Z" style="fill:#6e6d9e"/><path d="M7,46a1,1,0,0,1-.707-1.707L12,38.58594V22.80762a8.98809,8.98809,0,0,0-6.81689-8.73145l-.42578-.10645a.99963.99963,0,1,1,.48535-1.93945l.42578.10645A10.98369,10.98369,0,0,1,14,22.80762V39a.99928.99928,0,0,1-.293.707l-6,6A.99676.99676,0,0,1,7,46Zm6-7h0Z" style="fill:#6e6d9e"/><path d="M55,48a.99676.99676,0,0,1-.707-.293l-8-8A.99928.99928,0,0,1,46,39V22.80762a10.98359,10.98359,0,0,1,8.332-10.6709l.42529-.10645a.99963.99963,0,1,1,.48535,1.93945l-.42529.10645A8.988,8.988,0,0,0,48,22.80762V38.58594l7.707,7.707A1,1,0,0,1,55,48Z" style="fill:#6e6d9e"/><path d="M43,52a5.00221,5.00221,0,0,1-4.79834-6.4082,1.00012,1.00012,0,1,1,1.91895.56445,2.99677,2.99677,0,1,0,2.0332-2.03516,1.00018,1.00018,0,1,1-.56152-1.91992A5.00046,5.00046,0,1,1,43,52Z" style="fill:#6e6d9e"/><path d="M55,48h0a1,1,0,0,1,0-2h3V34.42969a1,1,0,0,1,2,0V47a.99042.99042,0,0,1-1,1ZM5,48H1a.99042.99042,0,0,1-1-1V13A5.00181,5.00181,0,0,1,5,8h5.71a1,1,0,1,1,0,2H5a3.00831,3.00831,0,0,0-3,3V46H5a1,1,0,0,1,0,2ZM59,31.42969a1.00288,1.00288,0,0,1-1-1V13a3.00863,3.00863,0,0,0-3-3H18.71973a1,1,0,0,1,0-2H55a5.00212,5.00212,0,0,1,5,5V30.42969A1.00319,1.00319,0,0,1,59,31.42969ZM14.71973,10A1,1,0,1,1,15.71,9,.99662.99662,0,0,1,14.71973,10Z" style="fill:#6e6d9e"/></svg>