<?xml version="1.0" encoding="iso-8859-1"?>
<!-- Generator: Adobe Illustrator 18.0.0, SVG Export Plug-In . SVG Version: 6.00 Build 0)  -->
<!DOCTYPE svg PUBLIC "-//W3C//DTD SVG 1.1//EN" "http://www.w3.org/Graphics/SVG/1.1/DTD/svg11.dtd">
<svg version="1.1" id="Capa_1" xmlns="http://www.w3.org/2000/svg" xmlns:xlink="http://www.w3.org/1999/xlink" x="0px" y="0px"
	 viewBox="0 0 241.041 241.041" style="enable-background:new 0 0 241.041 241.041;" xml:space="preserve">
<g>
	<path style="fill:#444CEF;" d="M207.503,113.624L126.39,43.848c-3.375-2.902-8.363-2.902-11.738,0l-81.113,69.776c-1.987,1.71-3.131,4.201-3.131,6.823
		v111.594c0,4.971,4.029,9,9,9h162.227c4.971,0,9-4.029,9-9V120.447C210.634,117.825,209.49,115.334,207.503,113.624z
		 M130.621,223.041h-17.954v-50.408h17.954V223.041z M192.634,223.041h-44.013v-59.408c0-4.971-4.029-9-9-9h-35.954
		c-4.971,0-9,4.029-9,9v59.408h-46.26v-98.464l72.113-62.034l72.113,62.034V223.041z"/>
	<path style="fill:#444CEF;" d="M228.633,90.13L126.39,2.177c-3.375-2.902-8.363-2.902-11.738,0L12.408,90.13c-3.769,3.242-4.195,8.925-0.954,12.692
		c3.242,3.768,8.923,4.194,12.692,0.954l96.374-82.904l96.374,82.904c1.699,1.461,3.787,2.177,5.865,2.177
		c2.53,0,5.047-1.062,6.827-3.131C232.828,99.055,232.401,93.372,228.633,90.13z"/>
</g>
<g>
</g>
<g>
</g>
<g>
</g>
<g>
</g>
<g>
</g>
<g>
</g>
<g>
</g>
<g>
</g>
<g>
</g>
<g>
</g>
<g>
</g>
<g>
</g>
<g>
</g>
<g>
</g>
<g>
</g>
</svg>
