<?xml version="1.0" encoding="UTF-8"?>
<svg xmlns="http://www.w3.org/2000/svg" xmlns:xlink="http://www.w3.org/1999/xlink" viewBox="0 0 48 48" width="48px" height="48px">
<g id="surface64677818">
<path style=" stroke:none;fill-rule:nonzero;fill:rgb(26.666668%,26.666668%,36.862746%);fill-opacity:1;" d="M 24 4 C 12.972656 4 4 12.972656 4 24 C 4 35.027344 12.972656 44 24 44 C 35.027344 44 44 35.027344 44 24 C 44 12.972656 35.027344 4 24 4 Z M 24 7 C 33.40625 7 41 14.59375 41 24 C 41 33.40625 33.40625 41 24 41 C 14.59375 41 7 33.40625 7 24 C 7 14.59375 14.59375 7 24 7 Z M 23.476562 11.980469 C 22.648438 11.992188 21.988281 12.671875 22 13.5 L 22 25.5 C 22 26.328125 22.671875 27 23.5 27 L 31.5 27 C 32.039062 27.007812 32.542969 26.722656 32.816406 26.257812 C 33.089844 25.789062 33.089844 25.210938 32.816406 24.742188 C 32.542969 24.277344 32.039062 23.992188 31.5 24 L 25 24 L 25 13.5 C 25.003906 13.09375 24.847656 12.703125 24.558594 12.417969 C 24.273438 12.128906 23.882812 11.972656 23.476562 11.976562 Z M 23.476562 11.980469 "/>
</g>
</svg>
