<svg width="32" height="32" viewBox="0 0 32 32" fill="none" xmlns="http://www.w3.org/2000/svg">
<circle cx="16" cy="16" r="16" fill="#ECEAFE"/>
<path d="M15.919 23.1181C16.0947 22.9425 16.0947 22.6575 15.919 22.4818L15.919 22.4817L13.9091 20.4718C14.2498 20.0022 14.4508 19.4245 14.4508 18.7999C14.4508 17.2259 13.1748 15.9499 11.6008 15.9499C10.0268 15.9499 8.75078 17.2259 8.75078 18.7999C8.75078 20.3739 10.0268 21.6499 11.6008 21.6499C12.2253 21.6499 12.8031 21.449 13.2727 21.1082L15.2826 23.1181C15.4583 23.2939 15.7432 23.2939 15.919 23.1181ZM15.919 23.1181L15.8836 23.0828L15.919 23.1181C15.919 23.1181 15.919 23.1181 15.919 23.1181ZM10.3508 15.4048V15.4755L10.4174 15.4519C10.6686 15.3631 10.9327 15.3018 11.2063 15.2716L11.2508 15.2666V15.2219V13.6499H20.7508V19.5999C20.7508 20.235 20.2359 20.7499 19.6008 20.7499H15.2978H15.1771L15.2625 20.8353L16.0625 21.6353L16.0771 21.6499H16.0978H19.6008C20.733 21.6499 21.6508 20.7321 21.6508 19.5999V12.3999C21.6508 11.2677 20.733 10.3499 19.6008 10.3499H12.4008C11.2686 10.3499 10.3508 11.2677 10.3508 12.3999V15.4048ZM12.4008 11.2499H19.6008C20.2359 11.2499 20.7508 11.7648 20.7508 12.3999V12.7499H11.2508V12.3999C11.2508 11.7648 11.7657 11.2499 12.4008 11.2499ZM11.6008 16.8499C12.6777 16.8499 13.5508 17.723 13.5508 18.7999C13.5508 19.8768 12.6777 20.7499 11.6008 20.7499C10.5238 20.7499 9.65078 19.8768 9.65078 18.7999C9.65078 17.723 10.5238 16.8499 11.6008 16.8499Z" fill="#674FFF" stroke="#674FFF" stroke-width="0.1"/>
</svg>
