<svg width="32" height="32" viewBox="0 0 32 32" fill="none" xmlns="http://www.w3.org/2000/svg">
<circle cx="16" cy="16" r="16" fill="#D6FFE1"/>
<path d="M16.3986 14.6196C16.5235 14.6746 16.6241 14.77 16.6816 14.8893L16.682 14.8901L16.682 14.8901C16.7215 14.976 16.7869 15.0499 16.8709 15.1024C16.9548 15.1549 17.0535 15.1837 17.155 15.185H17.189H17.189C17.2759 15.1851 17.3613 15.1645 17.4371 15.1255C17.513 15.0864 17.5766 15.0302 17.6224 14.9623L17.6226 14.962C17.6682 14.8955 17.6948 14.8195 17.7004 14.7411C17.706 14.6628 17.6902 14.5843 17.6546 14.5129L17.6545 14.5128C17.5586 14.3197 17.4121 14.1521 17.2282 14.0257L17.2281 14.0256C17.0125 13.8767 16.767 13.7698 16.5061 13.7113L16.467 13.7026V13.6626V13.5184C16.467 13.4525 16.4568 13.2903 16.4337 13.1326C16.4221 13.0538 16.4076 12.9777 16.3899 12.916C16.3811 12.8852 16.3718 12.859 16.3622 12.8383C16.3522 12.817 16.3435 12.8048 16.3373 12.7989C16.243 12.7107 16.1146 12.6606 15.9801 12.6606C15.8455 12.6606 15.7171 12.7107 15.6229 12.7989C15.6161 12.8053 15.6067 12.818 15.5959 12.8397C15.5853 12.8607 15.5747 12.8871 15.5644 12.9181C15.5437 12.98 15.5251 13.0563 15.5095 13.1351C15.478 13.2934 15.46 13.4544 15.46 13.5184V13.6356V13.6785L15.4176 13.685C15.0484 13.7415 14.7516 13.8652 14.5306 14.0513L14.53 14.0518L14.53 14.0518C14.3757 14.1776 14.2529 14.3333 14.1702 14.5079C14.0874 14.6825 14.0465 14.8717 14.0502 15.0624L14.0503 15.0634C14.0502 15.5109 14.218 15.8401 14.5459 16.0504L14.5461 16.0506C14.7256 16.1671 15.0377 16.2745 15.5064 16.376L15.5878 16.3935L15.5882 16.3936L16.0909 16.4972C16.2018 16.52 16.2999 16.5426 16.3845 16.5668C16.4985 16.596 16.6084 16.6378 16.7119 16.6914C16.7664 16.7189 16.8121 16.7602 16.8436 16.8113C16.875 16.8622 16.8909 16.9206 16.8891 16.9798M16.3986 14.6196L15.1222 14.9981L15.0722 14.9958C15.0722 14.9966 15.0722 14.9973 15.0722 14.998C15.0698 15.061 15.0873 15.123 15.122 15.1763C15.157 15.23 15.2079 15.2722 15.2677 15.2982M16.3986 14.6196L16.374 14.6084L16.374 14.6083L16.3712 14.6072C16.2065 14.5434 16.0293 14.5129 15.8513 14.5178M16.3986 14.6196L15.2755 14.6483C15.3553 14.6011 15.4431 14.5673 15.535 14.5483L15.535 14.5483C15.6388 14.5269 15.745 14.5167 15.8513 14.5178M16.8891 16.9798C16.889 17.0892 16.8591 17.183 16.7946 17.2598C16.7308 17.3359 16.6366 17.3909 16.516 17.4304L16.5155 17.4306C16.4743 17.4436 16.4324 17.4543 16.3899 17.4626L16.3893 17.4627L16.3893 17.4627C16.2505 17.4881 16.1094 17.5 15.968 17.4983M16.8891 16.9798C16.8891 16.9796 16.8891 16.9793 16.8891 16.9791H16.8391L16.8891 16.9807C16.8891 16.9804 16.8891 16.9801 16.8891 16.9798ZM15.968 17.4983C15.8244 17.5004 15.6811 17.484 15.5422 17.4497C15.4077 17.4181 15.2858 17.3495 15.1924 17.2522L15.1903 17.25L15.1904 17.2499C15.1507 17.2033 15.1192 17.151 15.0969 17.0949C15.0709 17.0329 15.0318 16.9762 14.9815 16.9284C14.9311 16.8804 14.8707 16.8424 14.8038 16.8167C14.737 16.7911 14.6651 16.7783 14.5926 16.7794C14.5202 16.7804 14.4488 16.7953 14.3828 16.8229C14.3168 16.8505 14.2578 16.8902 14.209 16.9396C14.1603 16.9889 14.123 17.0468 14.0991 17.1097C14.0752 17.1725 14.0653 17.2391 14.0697 17.3055C14.0742 17.3719 14.0929 17.4369 14.1251 17.4966L14.1252 17.4969C14.2192 17.6739 14.355 17.829 14.5225 17.9504C14.7843 18.1357 15.0913 18.2574 15.4161 18.3045L15.4589 18.3107V18.354V18.4815C15.4589 18.5462 15.4746 18.7135 15.5036 18.8775C15.5181 18.9592 15.5355 19.0384 15.5553 19.1025C15.5652 19.1346 15.5755 19.1619 15.5858 19.1834C15.5964 19.2056 15.6056 19.2183 15.6119 19.2242C15.7061 19.3125 15.8345 19.3626 15.9691 19.3626C16.1037 19.3626 16.2321 19.3125 16.3263 19.2242C16.3324 19.2185 16.3413 19.2061 16.3516 19.1839C16.3615 19.1625 16.3712 19.1353 16.3805 19.1033C16.3991 19.0394 16.4149 18.9602 16.4277 18.8785C16.4533 18.7147 16.4659 18.5469 16.4659 18.4815V18.3654V18.3223L16.5085 18.3159C16.8893 18.2589 17.1987 18.133 17.4372 17.9422L17.4381 17.9415L17.4381 17.9415C17.6012 17.8166 17.7318 17.6589 17.8203 17.4804C17.9088 17.302 17.9531 17.1073 17.9498 16.9109L17.9498 16.9103C17.9482 16.5046 17.8003 16.1932 17.5102 15.9788C17.3266 15.8436 17.0493 15.7326 16.6811 15.6514L16.6811 15.6514L15.8665 15.4715C15.7351 15.443 15.6277 15.4169 15.5377 15.3923C15.4444 15.3701 15.3539 15.3385 15.2677 15.2982M15.968 17.4983C15.9682 17.4983 15.9685 17.4983 15.9687 17.4983L15.9679 17.4483L15.9673 17.4983C15.9675 17.4983 15.9678 17.4983 15.968 17.4983ZM15.2677 15.2982C15.2675 15.2981 15.2673 15.298 15.267 15.2979L15.2882 15.2526L15.2684 15.2985C15.2682 15.2984 15.2679 15.2983 15.2677 15.2982ZM15.8513 14.5178C15.8516 14.5178 15.8519 14.5178 15.8522 14.5178L15.8517 14.5678L15.8503 14.5178C15.8506 14.5178 15.851 14.5178 15.8513 14.5178ZM17.1546 15.235C17.0441 15.2336 16.9363 15.2023 16.8444 15.1448C16.7525 15.0873 16.6803 15.0061 16.6366 14.911C16.5844 14.8028 16.4928 14.7157 16.3781 14.6652L17.1546 15.235ZM17.1546 15.235H17.189M17.1546 15.235H17.189M17.189 15.235C17.2837 15.2351 17.377 15.2127 17.46 15.1699C17.5431 15.1271 17.6132 15.0653 17.6639 14.9903C17.7144 14.9166 17.7441 14.8321 17.7503 14.7447C17.7565 14.6573 17.7389 14.5698 17.6993 14.4905L17.189 15.235Z" fill="#5FB678" stroke="#D6FFE1" stroke-width="0.1"/>
<path d="M16 22C19.3137 22 22 19.3137 22 16C22 12.6863 19.3137 10 16 10C12.6863 10 10 12.6863 10 16C10 19.3137 12.6863 22 16 22Z" stroke="#5FB678" stroke-linecap="round" stroke-linejoin="round"/>
</svg>
