<?xml version="1.0" encoding="iso-8859-1"?>
<!-- Generator: Adobe Illustrator 19.0.0, SVG Export Plug-In . SVG Version: 6.00 Build 0)  -->
<svg version="1.1" id="Layer_1" xmlns="http://www.w3.org/2000/svg" xmlns:xlink="http://www.w3.org/1999/xlink" x="0px" y="0px"
	 viewBox="0 0 329.995 329.995" style="enable-background:new 0 0 329.995 329.995;" xml:space="preserve">
<g id="XMLID_223_">
	<path id="XMLID_224_" fill="currentColor" d="M4.395,305.608c8.184,8.183,19.393,19.39,40.596,19.39c0.005,0,0.009,0,0.014,0
		c21.208,0,32.418-11.208,40.601-19.392c7.347-7.347,10.956-10.599,19.368-10.607c0.008,0,0.017,0.001,0.025,0.001
		c8.432,0,12.037,3.251,19.393,10.606c8.184,8.184,19.391,19.391,40.598,19.391c0.004,0,0.008,0,0.012,0
		c21.207,0,32.416-11.208,40.6-19.391c7.348-7.348,10.955-10.6,19.37-10.607c0.009,0,0.018,0.001,0.026,0.001
		c8.431,0,12.037,3.251,19.393,10.606c8.184,8.184,19.391,19.391,40.598,19.391c0.003-0.001,0.009,0,0.014,0
		c21.208-0.001,32.417-11.209,40.599-19.393c5.856-5.859,5.855-15.356-0.003-21.213c-5.859-5.857-15.355-5.855-21.214,0.003
		c-7.351,7.352-10.954,10.603-19.385,10.603c-0.001,0-0.003,0-0.005,0c-8.43,0.001-12.037-3.25-19.392-10.605
		c-8.177-8.176-19.374-19.372-40.55-19.391c-0.02,0-0.037-0.003-0.057-0.003c-21.215,0-32.424,11.21-40.608,19.395
		c-7.353,7.353-10.959,10.604-19.388,10.604c-0.002,0-0.003,0-0.004,0c-8.43,0.001-12.037-3.25-19.391-10.604
		c-8.176-8.176-19.373-19.37-40.546-19.392c-0.021,0-0.039-0.003-0.058-0.003c-21.214,0-32.423,11.21-40.608,19.395
		c-7.353,7.353-10.96,10.604-19.392,10.604c-0.002,0-0.005,0-0.007,0c-8.426,0-12.033-3.251-19.387-10.604l-0.003-0.003
		c-5.857-5.857-15.353-5.854-21.212,0.003C-1.465,290.251-1.463,299.75,4.395,305.608z"/>
	<path id="XMLID_225_" fill="currentColor" d="M264.995,34.997c19.299,0,35,15.701,35,35c0,8.284,6.716,15,15,15c8.284,0,15-6.716,15-15
		c0-35.841-29.159-65-65-65c-20.085,0-38.067,9.16-50,23.518c-11.933-14.358-29.916-23.518-50-23.518c-35.842,0-65,29.159-65,65
		v135.226c-18.018,1.598-28.088,11.655-35.603,19.17c-7.353,7.353-10.96,10.605-19.392,10.605c-0.002,0-0.005,0-0.007,0
		c-8.426,0-12.033-3.252-19.387-10.605l-0.003-0.003c-5.857-5.857-15.353-5.854-21.212,0.003
		c-5.857,5.858-5.855,15.357,0.003,21.215c8.184,8.183,19.393,19.39,40.596,19.39c0.005,0,0.009,0,0.014,0
		c21.208,0,32.418-11.208,40.601-19.392c7.347-7.347,10.956-10.599,19.368-10.607c0.008,0,0.017,0.001,0.025,0.001
		c8.432,0,12.037,3.251,19.393,10.606c8.184,8.184,19.391,19.391,40.598,19.391c0.004,0,0.008,0,0.012,0
		c21.207,0,32.416-11.208,40.6-19.391c7.348-7.348,10.955-10.6,19.37-10.607c0.009,0,0.018,0.001,0.026,0.001
		c8.431,0,12.037,3.251,19.393,10.606c8.184,8.184,19.391,19.391,40.598,19.391c0.003-0.001,0.009,0,0.014,0
		c21.208-0.001,32.417-11.209,40.599-19.393c5.856-5.859,5.855-15.356-0.003-21.213c-5.859-5.856-15.355-5.855-21.214,0.003
		c-7.351,7.352-10.954,10.603-19.385,10.603c-0.001,0-0.003,0-0.005,0c-8.43,0.001-12.037-3.251-19.392-10.605
		c-7.515-7.515-17.587-17.573-35.606-19.168V69.997C229.995,50.698,245.696,34.997,264.995,34.997z M199.995,211.518
		c-6.571,3.842-11.477,8.743-15.608,12.875c-7.353,7.353-10.959,10.605-19.388,10.605c-0.002,0-0.003,0-0.004,0
		c-8.43,0.001-12.037-3.251-19.391-10.605c-4.132-4.132-9.037-9.033-15.609-12.876v-26.52h70V211.518z M199.995,154.997h-70v-30h70
		V154.997z M199.995,94.997h-70v-25c0-19.299,15.701-35,35-35c19.299,0,35,15.701,35,35V94.997z"/>
</g>
<g>
</g>
<g>
</g>
<g>
</g>
<g>
</g>
<g>
</g>
<g>
</g>
<g>
</g>
<g>
</g>
<g>
</g>
<g>
</g>
<g>
</g>
<g>
</g>
<g>
</g>
<g>
</g>
<g>
</g>
</svg>
